{"title":"Geordie Shore S08E08 1080P WEB-DL (FINAL)","uid":11013945,"size":1639235576,"categoryP":"video","categoryS":"hd___tv_shows","magnet":"?xt=urn:btih:7075cf2fb5b5ad87a8338ce4a1122cf19fb2ec8b&amp;dn=Geordie+Shore+S08E08+1080P+WEB-DL+%28FINAL%29&amp;tr=udp%3A%2F%2Ftracker.openbittorrent.com%3A80&amp;tr=udp%3A%2F%2Fopen.demonii.com%3A1337&amp;tr=udp%3A%2F%2Ftracker.coppersurfer.tk%3A6969&amp;tr=udp%3A%2F%2Fexodus.desync.com%3A6969","seeders":4,"leechers":0,"uploader":"jmanwf","files":-1,"time":1410429510,"description":"The gang are cooling off after one of the biggest fights in 'Geordie Shore'\n\nEpisode number: 8x8\nAirdate: Tuesday September 09th, 2014\n\nFormat : MPEG-4\nFormat profile : Base Media / Version 2\nCodec ID : mp42\nFile size : 1.53 GiB\nDuration : 42mn 43s\nOverall bit rate mode : Variable\nOverall bit rate : 5 115 Kbps\nMovie name : 808\nAlbum : Geordie Shore, Season 8\nPart/Position : 1\nPart/Total : 1\nTrack name/Position : 8\nTrack name/Total : 18\nPerformer : Geordie Shore\nGenre : Reality TV\n\nVideo\nID : 2\nFormat : AVC\nFormat/Info : Advanced Video Codec\nFormat profile : &lt;a class=&quot;__cf_email__&quot; href=&quot;/cdn-cgi/l/email-protection&quot; data-cfemail=&quot;5018393738101c647e60&quot;&gt;[email&amp;#160;protected]&lt;/a&gt;&lt;script cf-hash='f9e31' type=&quot;text/javascript&quot;&gt;\n/* &lt;![CDATA[ */!function(){try{var t=&quot;currentScript&quot;in document?document.currentScript:function(){for(var t=document.getElementsByTagName(&quot;script&quot;),e=t.length;e--;)if(t[e].getAttribute(&quot;cf-hash&quot;))return t[e]}();if(t&amp;&amp;t.previousSibling){var e,r,n,i,c=t.previousSibling,a=c.getAttribute(&quot;data-cfemail&quot;);if(a){for(e=&quot;&quot;,r=parseInt(a.substr(0,2),16),n=2;a.length-n;n+=2)i=parseInt(a.substr(n,2),16)^r,e+=String.fromCharCode(i);e=document.createTextNode(e),c.parentNode.replaceChild(e,c)}}}catch(u){}}();/* ]]&gt; */&lt;/script&gt;\nFormat settings, CABAC : Yes\nFormat settings, ReFrames : 4 frames\nCodec ID : avc1\nCodec ID/Info : Advanced Video Coding\nDuration : 42mn 43s\nBit rate : 4 984 Kbps\nWidth : 1 920 pixels\nHeight : 1 080 pixels\nDisplay aspect ratio : 16:9\nFrame rate : 25.000 fps\nColor space : YUV\nChroma subsampling : 4:2:0\nBit depth : 8 bits\nScan type : Progressive\nBits/(Pixel*Frame) : 0.096\nStream size : 1.49 GiB (97%)\nLanguage : English\nEncoded date : UTC 2014-09-10 21:54:01\nTagged date : UTC 2014-09-10 21:55:19\nColor primaries : BT.709\nTransfer characteristics : BT.709\nMatrix coefficients : BT.709\n\nAudio\nID : 1\nFormat : AAC\nFormat/Info : Advanced Audio Codec\nFormat profile : LC\nCodec ID : 40\nDuration : 42mn 43s\nBit rate mode : Variable\nBit rate : 127 Kbps\nMaximum bit rate : 226 Kbps\nChannel(s) : 2 channels\nChannel positions : Front: L R\nSampling rate : 48.0 KHz\nCompression mode : Lossy\nStream size : 38.8 MiB (2%)\nLanguage : English\nEncoded date : UTC 2014-09-10 21:51:33\nTagged date : UTC 2014-09-10 21:54:00\n","torrent":{"xt":"urn:btih:7075cf2fb5b5ad87a8338ce4a1122cf19fb2ec8b","amp;dn":"Geordie+Shore+S08E08+1080P+WEB-DL+%28FINAL%29","amp;tr":["udp%3A%2F%2Ftracker.openbittorrent.com%3A80","udp%3A%2F%2Fopen.demonii.com%3A1337","udp%3A%2F%2Ftracker.coppersurfer.tk%3A6969","udp%3A%2F%2Fexodus.desync.com%3A6969"],"infoHash":"7075cf2fb5b5ad87a8338ce4a1122cf19fb2ec8b","infoHashBuffer":{"type":"Buffer","data":[112,117,207,47,181,181,173,135,168,51,140,228,161,18,44,241,159,178,236,139]},"announce":[],"urlList":[]}}